<mxfile host="app.diagrams.net" agent="Mozilla/5.0 (Windows NT 10.0; Win64; x64) AppleWebKit/537.36 (KHTML, like Gecko) Chrome/127.0.0.0 Safari/537.36" version="24.7.7">
  <diagram name="Page-1" id="Li_bAJdcFMd6VOPTxmWB">
    <mxGraphModel dx="1050" dy="557" grid="1" gridSize="10" guides="1" tooltips="1" connect="1" arrows="1" fold="1" page="1" pageScale="1" pageWidth="850" pageHeight="1100" math="0" shadow="0">
      <root>
        <mxCell id="0" />
        <mxCell id="1" parent="0" />
        <mxCell id="g6FTk2VxFZrlomHoq7o0-1" style="edgeStyle=orthogonalEdgeStyle;rounded=0;orthogonalLoop=1;jettySize=auto;html=1;exitX=0.5;exitY=1;exitDx=0;exitDy=0;entryX=0.5;entryY=0;entryDx=0;entryDy=0;" edge="1" parent="1" source="g6FTk2VxFZrlomHoq7o0-2" target="g6FTk2VxFZrlomHoq7o0-5">
          <mxGeometry relative="1" as="geometry" />
        </mxCell>
        <mxCell id="g6FTk2VxFZrlomHoq7o0-2" value="Mulai" style="ellipse;whiteSpace=wrap;html=1;" vertex="1" parent="1">
          <mxGeometry x="360" y="40" width="120" height="60" as="geometry" />
        </mxCell>
        <mxCell id="g6FTk2VxFZrlomHoq7o0-3" value="Selesai" style="ellipse;whiteSpace=wrap;html=1;" vertex="1" parent="1">
          <mxGeometry x="360" y="520" width="120" height="60" as="geometry" />
        </mxCell>
        <mxCell id="g6FTk2VxFZrlomHoq7o0-4" style="edgeStyle=orthogonalEdgeStyle;rounded=0;orthogonalLoop=1;jettySize=auto;html=1;exitX=0.5;exitY=1;exitDx=0;exitDy=0;" edge="1" parent="1" source="g6FTk2VxFZrlomHoq7o0-5" target="g6FTk2VxFZrlomHoq7o0-12">
          <mxGeometry relative="1" as="geometry" />
        </mxCell>
        <mxCell id="g6FTk2VxFZrlomHoq7o0-5" value="Input Data" style="shape=parallelogram;perimeter=parallelogramPerimeter;whiteSpace=wrap;html=1;fixedSize=1;" vertex="1" parent="1">
          <mxGeometry x="360" y="140" width="120" height="60" as="geometry" />
        </mxCell>
        <mxCell id="g6FTk2VxFZrlomHoq7o0-6" style="edgeStyle=orthogonalEdgeStyle;rounded=0;orthogonalLoop=1;jettySize=auto;html=1;exitX=0.5;exitY=1;exitDx=0;exitDy=0;" edge="1" parent="1" source="g6FTk2VxFZrlomHoq7o0-7" target="g6FTk2VxFZrlomHoq7o0-3">
          <mxGeometry relative="1" as="geometry" />
        </mxCell>
        <mxCell id="g6FTk2VxFZrlomHoq7o0-7" value="Simpan data ke database" style="rounded=0;whiteSpace=wrap;html=1;" vertex="1" parent="1">
          <mxGeometry x="360" y="400" width="120" height="60" as="geometry" />
        </mxCell>
        <mxCell id="g6FTk2VxFZrlomHoq7o0-8" style="edgeStyle=orthogonalEdgeStyle;rounded=0;orthogonalLoop=1;jettySize=auto;html=1;exitX=0;exitY=0.5;exitDx=0;exitDy=0;entryX=0;entryY=0.5;entryDx=0;entryDy=0;" edge="1" parent="1" source="g6FTk2VxFZrlomHoq7o0-12" target="g6FTk2VxFZrlomHoq7o0-2">
          <mxGeometry relative="1" as="geometry">
            <Array as="points">
              <mxPoint x="280" y="305" />
              <mxPoint x="280" y="70" />
            </Array>
          </mxGeometry>
        </mxCell>
        <mxCell id="g6FTk2VxFZrlomHoq7o0-9" value="Tidak" style="edgeLabel;html=1;align=center;verticalAlign=middle;resizable=0;points=[];" vertex="1" connectable="0" parent="g6FTk2VxFZrlomHoq7o0-8">
          <mxGeometry x="0.2251" y="-2" relative="1" as="geometry">
            <mxPoint as="offset" />
          </mxGeometry>
        </mxCell>
        <mxCell id="g6FTk2VxFZrlomHoq7o0-10" style="edgeStyle=orthogonalEdgeStyle;rounded=0;orthogonalLoop=1;jettySize=auto;html=1;exitX=0.5;exitY=1;exitDx=0;exitDy=0;entryX=0.5;entryY=0;entryDx=0;entryDy=0;" edge="1" parent="1" source="g6FTk2VxFZrlomHoq7o0-12" target="g6FTk2VxFZrlomHoq7o0-7">
          <mxGeometry relative="1" as="geometry" />
        </mxCell>
        <mxCell id="g6FTk2VxFZrlomHoq7o0-11" value="Ya" style="edgeLabel;html=1;align=center;verticalAlign=middle;resizable=0;points=[];" vertex="1" connectable="0" parent="g6FTk2VxFZrlomHoq7o0-10">
          <mxGeometry x="-0.3" relative="1" as="geometry">
            <mxPoint as="offset" />
          </mxGeometry>
        </mxCell>
        <mxCell id="g6FTk2VxFZrlomHoq7o0-12" value="Tambah data?" style="rhombus;whiteSpace=wrap;html=1;" vertex="1" parent="1">
          <mxGeometry x="363.75" y="270" width="112.5" height="70" as="geometry" />
        </mxCell>
      </root>
    </mxGraphModel>
  </diagram>
</mxfile>
